{
    "asset" : {
        "generator" : "Khronos glTF Blender I/O v3.3.32",
        "version" : "2.0"
    },
    "scene" : 0,
    "scenes" : [
        {
            "extras" : {
                "automirror" : {
                    "axis" : 2,
                    "apply_mirror" : 0,
                    "show_on_cage" : 0,
                    "toggle_edit" : 1,
                    "cut" : 1,
                    "orientation" : 1
                },
                "scatter_properties" : {}
            },
            "name" : "Scene",
            "nodes" : [
                0,
                1,
                2,
                3,
                4
            ]
        }
    ],
    "nodes" : [
        {
            "extras" : {
                "ant_landscape" : {}
            },
            "mesh" : 0,
            "name" : "Zigzag-1-col",
            "scale" : [
                2.504835367202759,
                2.2973225116729736,
                2.7159645557403564
            ]
        },
        {
            "extras" : {
                "ant_landscape" : {}
            },
            "mesh" : 1,
            "name" : "Zigzag-2-col",
            "scale" : [
                2.504835367202759,
                2.2973225116729736,
                2.7159645557403564
            ]
        },
        {
            "extras" : {
                "ant_landscape" : {}
            },
            "mesh" : 2,
            "name" : "Circle-col.001",
            "rotation" : [
                0.11209281533956528,
                -0.11209280043840408,
                -0.6981656551361084,
                0.6981655955314636
            ],
            "translation" : [
                -94.8143081665039,
                124.88540649414062,
                -188.0674591064453
            ]
        },
        {
            "extras" : {
                "ant_landscape" : {}
            },
            "name" : "Vert.001",
            "rotation" : [
                0,
                -0.13406388461589813,
                0,
                0.9909726977348328
            ],
            "translation" : [
                9.077869415283203,
                103.0276107788086,
                -283.13690185546875
            ]
        },
        {
            "extras" : {
                "ant_landscape" : {}
            },
            "name" : "Vert.003"
        }
    ],
    "meshes" : [
        {
            "name" : "Plane",
            "primitives" : [
                {
                    "attributes" : {
                        "POSITION" : 0,
                        "NORMAL" : 1,
                        "TANGENT" : 2,
                        "TEXCOORD_0" : 3
                    },
                    "indices" : 4
                }
            ]
        },
        {
            "name" : "Plane.006",
            "primitives" : [
                {
                    "attributes" : {
                        "POSITION" : 5,
                        "NORMAL" : 6
                    },
                    "indices" : 7
                }
            ]
        },
        {
            "name" : "Circle.002",
            "primitives" : [
                {
                    "attributes" : {
                        "POSITION" : 8,
                        "NORMAL" : 9
                    },
                    "indices" : 10
                }
            ]
        }
    ],
    "accessors" : [
        {
            "bufferView" : 0,
            "componentType" : 5126,
            "count" : 1245,
            "max" : [
                49.7686767578125,
                36.74622344970703,
                36.877281188964844
            ],
            "min" : [
                -50.52316665649414,
                -0.0050609540194272995,
                -36.82802200317383
            ],
            "type" : "VEC3"
        },
        {
            "bufferView" : 1,
            "componentType" : 5126,
            "count" : 1245,
            "type" : "VEC3"
        },
        {
            "bufferView" : 2,
            "componentType" : 5126,
            "count" : 1245,
            "type" : "VEC4"
        },
        {
            "bufferView" : 3,
            "componentType" : 5126,
            "count" : 1245,
            "type" : "VEC2"
        },
        {
            "bufferView" : 4,
            "componentType" : 5123,
            "count" : 1245,
            "type" : "SCALAR"
        },
        {
            "bufferView" : 5,
            "componentType" : 5126,
            "count" : 1782,
            "max" : [
                53.1807746887207,
                71.42247009277344,
                -33.74867248535156
            ],
            "min" : [
                -52.649024963378906,
                0.3461933135986328,
                -107.92842864990234
            ],
            "type" : "VEC3"
        },
        {
            "bufferView" : 6,
            "componentType" : 5126,
            "count" : 1782,
            "type" : "VEC3"
        },
        {
            "bufferView" : 7,
            "componentType" : 5123,
            "count" : 1782,
            "type" : "SCALAR"
        },
        {
            "bufferView" : 8,
            "componentType" : 5126,
            "count" : 3138,
            "max" : [
                56.97420120239258,
                152.5174102783203,
                141.95254516601562
            ],
            "min" : [
                -261.4500732421875,
                -137.5446014404297,
                -139.71075439453125
            ],
            "type" : "VEC3"
        },
        {
            "bufferView" : 9,
            "componentType" : 5126,
            "count" : 3138,
            "type" : "VEC3"
        },
        {
            "bufferView" : 10,
            "componentType" : 5123,
            "count" : 3138,
            "type" : "SCALAR"
        }
    ],
    "bufferViews" : [
        {
            "buffer" : 0,
            "byteLength" : 14940,
            "byteOffset" : 0,
            "target" : 34962
        },
        {
            "buffer" : 0,
            "byteLength" : 14940,
            "byteOffset" : 14940,
            "target" : 34962
        },
        {
            "buffer" : 0,
            "byteLength" : 19920,
            "byteOffset" : 29880,
            "target" : 34962
        },
        {
            "buffer" : 0,
            "byteLength" : 9960,
            "byteOffset" : 49800,
            "target" : 34962
        },
        {
            "buffer" : 0,
            "byteLength" : 2490,
            "byteOffset" : 59760,
            "target" : 34963
        },
        {
            "buffer" : 0,
            "byteLength" : 21384,
            "byteOffset" : 62252,
            "target" : 34962
        },
        {
            "buffer" : 0,
            "byteLength" : 21384,
            "byteOffset" : 83636,
            "target" : 34962
        },
        {
            "buffer" : 0,
            "byteLength" : 3564,
            "byteOffset" : 105020,
            "target" : 34963
        },
        {
            "buffer" : 0,
            "byteLength" : 37656,
            "byteOffset" : 108584,
            "target" : 34962
        },
        {
            "buffer" : 0,
            "byteLength" : 37656,
            "byteOffset" : 146240,
            "target" : 34962
        },
        {
            "buffer" : 0,
            "byteLength" : 6276,
            "byteOffset" : 183896,
            "target" : 34963
        }
    ],
    "buffers" : [
        {
            "byteLength" : 190172,
            "uri" : "Zigzag-1-567e9a76d9da5fb10538dfded21628c5.bin"
        }
    ]
}
