{
    "asset" : {
        "generator" : "Khronos glTF Blender I/O v3.3.32",
        "version" : "2.0"
    },
    "scene" : 0,
    "scenes" : [
        {
            "extras" : {
                "automirror" : {
                    "axis" : 2,
                    "apply_mirror" : 0,
                    "show_on_cage" : 0,
                    "toggle_edit" : 1,
                    "cut" : 1,
                    "orientation" : 1
                },
                "scatter_properties" : {}
            },
            "name" : "Scene",
            "nodes" : [
                0,
                1
            ]
        }
    ],
    "nodes" : [
        {
            "extras" : {
                "ant_landscape" : {
                    "ant_terrain_name" : "Landscape",
                    "at_cursor" : 1,
                    "smooth_mesh" : 1,
                    "tri_face" : 0,
                    "sphere_mesh" : 0,
                    "land_material" : "",
                    "water_material" : "",
                    "texture_block" : "",
                    "subdivision_x" : 128,
                    "subdivision_y" : 128,
                    "mesh_size_x" : 2.0,
                    "mesh_size_y" : 2.0,
                    "mesh_size" : 2.0,
                    "random_seed" : 7,
                    "noise_offset_x" : 0.0,
                    "noise_offset_y" : 0.0,
                    "noise_offset_z" : 0.0,
                    "noise_size_x" : 1.0,
                    "noise_size_y" : 1.0,
                    "noise_size_z" : 1.0,
                    "noise_size" : 1.0,
                    "noise_type" : 7,
                    "basis_type" : 0,
                    "vl_basis_type" : 1,
                    "distortion" : 1.5,
                    "hard_noise" : 0,
                    "noise_depth" : 8,
                    "amplitude" : 0.5,
                    "frequency" : 1.7999999523162842,
                    "dimension" : 1.0,
                    "lacunarity" : 2.0,
                    "offset" : 1.0,
                    "gain" : 2.0,
                    "marble_bias" : 2,
                    "marble_sharp" : 4,
                    "marble_shape" : 0,
                    "height" : 0.800000011920929,
                    "height_invert" : 0,
                    "height_offset" : 0.0,
                    "maximum" : 2.0,
                    "minimum" : 0.0,
                    "edge_falloff" : 3,
                    "edge_level" : 0.0,
                    "falloff_x" : 1.7999999523162842,
                    "falloff_y" : 1.5,
                    "strata_type" : 0,
                    "strata" : 5.0,
                    "water_plane" : 0,
                    "water_level" : 0.009999999776482582,
                    "vert_group" : "",
                    "remove_double" : 0,
                    "fx_mixfactor" : 0.0,
                    "fx_mix_mode" : 1,
                    "fx_type" : 15,
                    "fx_bias" : 0,
                    "fx_turb" : 0.5,
                    "fx_depth" : 1,
                    "fx_frequency" : 1.5,
                    "fx_amplitude" : 0.3799999952316284,
                    "fx_size" : 1.1500000953674316,
                    "fx_loc_x" : -1.0,
                    "fx_loc_y" : 1.0,
                    "fx_height" : 1.0,
                    "fx_offset" : 1.0,
                    "fx_invert" : 0
                }
            },
            "mesh" : 0,
            "name" : "Landscape-col",
            "scale" : [
                5,
                9.090445518493652,
                5
            ],
            "translation" : [
                -21.466197967529297,
                0,
                -0.24563054740428925
            ]
        },
        {
            "extras" : {
                "ant_landscape" : {}
            },
            "mesh" : 1,
            "name" : "Plane-col",
            "scale" : [
                25,
                20.200992584228516,
                25
            ],
            "translation" : [
                -21.466197967529297,
                0,
                -0.24563099443912506
            ]
        }
    ],
    "meshes" : [
        {
            "name" : "Landscape.001",
            "primitives" : [
                {
                    "attributes" : {
                        "POSITION" : 0,
                        "NORMAL" : 1
                    },
                    "indices" : 2
                }
            ]
        },
        {
            "name" : "Plane.008",
            "primitives" : [
                {
                    "attributes" : {
                        "POSITION" : 3,
                        "NORMAL" : 4,
                        "TANGENT" : 5,
                        "TEXCOORD_0" : 6
                    },
                    "indices" : 7
                }
            ]
        }
    ],
    "accessors" : [
        {
            "bufferView" : 0,
            "componentType" : 5126,
            "count" : 306,
            "max" : [
                0.8498005867004395,
                1.6578847169876099,
                0.7854309678077698
            ],
            "min" : [
                -0.8518163561820984,
                0.009119509719312191,
                -0.8259096741676331
            ],
            "type" : "VEC3"
        },
        {
            "bufferView" : 1,
            "componentType" : 5126,
            "count" : 306,
            "type" : "VEC3"
        },
        {
            "bufferView" : 2,
            "componentType" : 5123,
            "count" : 306,
            "type" : "SCALAR"
        },
        {
            "bufferView" : 3,
            "componentType" : 5126,
            "count" : 992,
            "max" : [
                1.000976800918579,
                0.5194026231765747,
                1.0021357536315918
            ],
            "min" : [
                -1.0016086101531982,
                -0.09658955782651901,
                -0.9999834895133972
            ],
            "type" : "VEC3"
        },
        {
            "bufferView" : 4,
            "componentType" : 5126,
            "count" : 992,
            "type" : "VEC3"
        },
        {
            "bufferView" : 5,
            "componentType" : 5126,
            "count" : 992,
            "type" : "VEC4"
        },
        {
            "bufferView" : 6,
            "componentType" : 5126,
            "count" : 992,
            "type" : "VEC2"
        },
        {
            "bufferView" : 7,
            "componentType" : 5123,
            "count" : 996,
            "type" : "SCALAR"
        }
    ],
    "bufferViews" : [
        {
            "buffer" : 0,
            "byteLength" : 3672,
            "byteOffset" : 0,
            "target" : 34962
        },
        {
            "buffer" : 0,
            "byteLength" : 3672,
            "byteOffset" : 3672,
            "target" : 34962
        },
        {
            "buffer" : 0,
            "byteLength" : 612,
            "byteOffset" : 7344,
            "target" : 34963
        },
        {
            "buffer" : 0,
            "byteLength" : 11904,
            "byteOffset" : 7956,
            "target" : 34962
        },
        {
            "buffer" : 0,
            "byteLength" : 11904,
            "byteOffset" : 19860,
            "target" : 34962
        },
        {
            "buffer" : 0,
            "byteLength" : 15872,
            "byteOffset" : 31764,
            "target" : 34962
        },
        {
            "buffer" : 0,
            "byteLength" : 7936,
            "byteOffset" : 47636,
            "target" : 34962
        },
        {
            "buffer" : 0,
            "byteLength" : 1992,
            "byteOffset" : 55572,
            "target" : 34963
        }
    ],
    "buffers" : [
        {
            "byteLength" : 57564,
            "uri" : "Zigzag-2-e0db5498e339be997d71baffaf4178d5.bin"
        }
    ]
}
